Coordinates
version=1
nRows=14
nColumns=40
inDegrees=yes

Units are S.I. units (second, meters, Newtons, ...)
Angles are in degrees.

endheader
time	pelvis_tilt	pelvis_list	pelvis_rotation	pelvis_tx	pelvis_ty	pelvis_tz	hip_flexion_r	hip_adduction_r	hip_rotation_r	knee_angle_r	knee_angle_r_beta	ankle_angle_r	subtalar_angle_r	mtp_angle_r	hip_flexion_l	hip_adduction_l	hip_rotation_l	knee_angle_l	knee_angle_l_beta	ankle_angle_l	subtalar_angle_l	mtp_angle_l	lumbar_extension	lumbar_bending	lumbar_rotation	arm_flex_r	arm_add_r	arm_rot_r	elbow_flex_r	pro_sup_r	wrist_flex_r	wrist_dev_r	arm_flex_l	arm_add_l	arm_rot_l	elbow_flex_l	pro_sup_l	wrist_flex_l	wrist_dev_l
     10.70250000	     -2.97998707	     -4.40035205	      4.76586262	      1.01780940	      0.93229561	      0.52306469	      8.54718648	      3.72567622	    -15.82447868	     15.12810967	     15.12810967	     11.63888113	     -2.31311045	     -3.52811865	     31.60345718	    -11.22753279	      1.70925739	     52.19572480	     52.19572480	     10.93061831	    -18.65255543	     13.64802289	    -10.10544094	      4.35245258	      1.98612856	     25.42963653	    -19.26895208	     -8.61941849	     72.65826078	     45.06640503	      0.00000000	      0.00000000	     -0.15563114	     -7.71401324	     -1.29377120	     27.66780086	     45.50294102	      0.00000000	      0.00000000
     10.71585714	     -3.07217946	     -4.20109779	      5.33460647	      1.01661207	      0.93271205	      0.52262670	      7.87682645	      3.59686768	    -16.32005975	     14.25495363	     14.25495363	     11.43937073	     -2.01318934	     -4.16339393	     31.72449047	    -10.51538111	      1.93309243	     48.30529121	     48.30529121	     10.78861807	    -18.45096342	     12.93317921	    -10.24763425	      4.16741481	      1.93157444	     26.44120259	    -19.27419652	     -9.07750512	     74.83572479	     45.02983556	      0.00000000	      0.00000000	     -0.94611210	     -7.65471559	     -0.82068275	     28.04936071	     45.42747544	      0.00000000	      0.00000000
     10.72921429	     -3.35214376	     -3.99991087	      5.82716961	      1.01520389	      0.93268594	      0.52205714	      7.63729642	      3.40832344	    -16.57995044	     13.80491064	     13.80491064	     11.49578906	     -2.10547507	     -4.21815639	     31.97178152	     -9.73987256	      2.22056575	     44.38190299	     44.38190299	     10.80373757	    -17.85946148	     13.07827651	    -10.13619232	      3.95464473	      2.08783909	     27.78153725	    -19.63146440	     -9.31761126	     75.58557199	     45.02225591	      0.00000000	      0.00000000	     -1.38791598	     -7.43024164	     -0.68954065	     27.90346857	     45.40276770	      0.00000000	      0.00000000
     10.74257143	     -3.54075384	     -3.84239667	      6.30797525	      1.01385762	      0.93269921	      0.52136088	      7.26221828	      3.26416386	    -16.92815861	     13.30249762	     13.30249762	     11.52894668	     -1.99480442	     -4.35052843	     31.98306501	     -8.99539935	      2.61245094	     40.34651165	     40.34651165	     10.58995502	    -16.87939148	     12.96277269	    -10.13328821	      3.82048936	      2.13002169	     29.05012167	    -19.78202333	     -9.53074608	     76.47576619	     45.00943526	      0.00000000	      0.00000000	     -1.83974564	     -7.25566433	     -0.54106093	     27.73016463	     45.37602888	      0.00000000	      0.00000000
     10.75592857	     -3.72591408	     -3.76146593	      6.76678185	      1.01257020	      0.93250845	      0.52060919	      6.91403342	      3.18403820	    -17.37446972	     12.85309957	     12.85309957	     11.61028749	     -1.78188848	     -4.58314586	     31.94056080	     -8.37635189	      2.98715292	     36.44032292	     36.44032292	     10.25637565	    -15.46362771	     12.56059295	    -10.14339947	      3.79124902	      2.19577769	     30.28299043	    -19.93934721	     -9.75276289	     77.33089607	     44.99880715	      0.00000000	      0.00000000	     -2.24282288	     -7.05770837	     -0.38301028	     27.58261938	     45.34936209	      0.00000000	      0.00000000
     10.76928571	     -3.87770136	     -3.76951101	      7.18313815	      1.01142328	      0.93211042	      0.51981680	      6.52263429	      3.18138139	    -17.96802285	     12.37432227	     12.37432227	     11.45418343	     -1.29392739	     -5.56790954	     31.67952578	     -7.90901774	      3.31005134	     32.38305062	     32.38305062	      8.22125764	    -14.21687697	      8.17227346	    -10.16421526	      3.85839180	      2.42743689	     31.30998752	    -20.16702498	    -10.24230416	     78.39407177	     45.02538741	      0.00000000	      0.00000000	     -2.59399778	     -6.94819222	      0.45443110	     27.54724268	     45.25936129	      0.00000000	      0.00000000
     10.78264286	     -4.05376216	     -3.76832527	      7.52601555	      1.01028880	      0.93167263	      0.51900234	      6.28946081	      3.16674912	    -18.21599702	     12.17066166	     12.17066166	     11.63153287	     -1.26571684	     -5.64147090	     31.64431080	     -7.46914108	      3.56956649	     29.15247296	     29.15247296	      8.04609242	    -12.19926722	      8.57848157	    -10.13591498	      3.88493600	      2.61187905	     32.43939104	    -20.35249086	    -10.34583572	     78.82360942	     45.02354536	      0.00000000	      0.00000000	     -2.88660351	     -6.76416222	      0.53769032	     27.42633964	     45.24706516	      0.00000000	      0.00000000
     10.79600000	     -4.23190247	     -3.84026853	      7.81391037	      1.00930956	      0.93110050	      0.51817245	      6.07968429	      3.21900156	    -18.48260323	     12.00511549	     12.00511549	     11.80410131	     -1.14334217	     -5.72757373	     31.66714036	     -7.14420671	      3.76143846	     26.41300629	     26.41300629	      7.80280834	    -10.25506621	      8.94798545	    -10.06856894	      3.98089741	      2.80190393	     33.52461165	    -20.49780413	    -10.44806124	     79.17405777	     45.02302641	      0.00000000	      0.00000000	     -3.14496794	     -6.57801812	      0.60023165	     27.32472120	     45.23716047	      0.00000000	      0.00000000
     10.80935714	     -4.26040549	     -3.86952759	      8.05387124	      1.00857619	      0.93073025	      0.51730397	      5.67117394	      3.23626832	    -18.82141092	     11.82136677	     11.82136677	     12.03132031	     -0.76094969	     -5.81527718	     31.52940967	     -6.90137877	      3.54995666	     24.15667872	     24.15667872	      7.51479621	     -8.23526080	      9.19187607	    -10.15826898	      4.05597568	      2.88595823	     34.56214826	    -20.43323044	    -10.52694642	     79.35128386	     45.02907809	      0.00000000	      0.00000000	     -3.41619093	     -6.48332865	      0.67167591	     27.19473060	     45.22898175	      0.00000000	      0.00000000
     10.82271429	     -4.34360173	     -3.95876906	      8.21820918	      1.00801900	      0.93016754	      0.51642215	      5.36589046	      3.29997612	    -19.10141054	     11.72587404	     11.72587404	     12.29862253	     -0.42231094	     -5.86849836	     31.52057875	     -6.73072902	      3.26575158	     22.49624684	     22.49624684	      7.17183435	     -6.70202910	      9.35500701	    -10.12262006	      4.16775050	      3.03548811	     35.51564947	    -20.34914472	    -10.59383277	     79.33009462	     45.04062637	      0.00000000	      0.00000000	     -3.64486504	     -6.37254715	      0.72869651	     27.12565085	     45.22342570	      0.00000000	      0.00000000
     10.83607143	     -4.45501500	     -4.11675775	      8.33135864	      1.00760676	      0.92946916	      0.51552167	      5.13406693	      3.43085979	    -19.26318927	     11.70290581	     11.70290581	     12.55232529	     -0.23521216	     -5.90976663	     31.60656021	     -6.62567235	      2.97402078	     21.41487172	     21.41487172	      6.78396145	     -5.79340890	      9.49775055	    -10.02722923	      4.34983456	      3.25695171	     36.31489648	    -20.32286032	    -10.65613640	     79.31477608	     45.04899044	      0.00000000	      0.00000000	     -3.81202286	     -6.26059518	      0.76257159	     27.10917536	     45.21886562	      0.00000000	      0.00000000
     10.84942857	     -4.41094250	     -4.20034021	      8.38353568	      1.00764124	      0.92899692	      0.51455342	      4.64819000	      3.46867017	    -19.70455239	     11.64337188	     11.64337188	     13.03200373	      0.65916382	     -5.64179467	     31.46211063	     -6.60093872	      2.13572126	     20.76648843	     20.76648843	      6.26738799	     -4.73107210	      8.79509089	    -10.00850580	      4.45267160	      3.09015634	     37.45807382	    -19.64261528	    -10.72415517	     78.18110940	     45.10370998	      0.00000000	      0.00000000	     -4.15274401	     -6.24211689	      0.85815642	     27.15827131	     45.21653878	      0.00000000	      0.00000000
     10.86278571	     -4.46940714	     -4.33969273	      8.32056702	      1.00782026	      0.92826507	      0.51368650	      4.34781894	      3.59335707	    -19.63512863	     11.67358271	     11.67358271	     13.33815754	      0.75997326	     -5.67688902	     31.42502386	     -6.57446292	      1.63855735	     20.56646947	     20.56646947	      5.87389491	     -4.80780587	      8.85583268	     -9.88503132	      4.55435877	      3.38817665	     37.86154094	    -19.53080765	    -10.70527948	     78.10844355	     45.10852835	      0.00000000	      0.00000000	     -4.30277962	     -6.24329069	      0.85879036	     27.16107089	     45.21650163	      0.00000000	      0.00000000
     10.87614286	     -4.41659202	     -4.46573109	      8.23226034	      1.00840343	      0.92762193	      0.51270138	      3.85855976	      3.67474087	    -19.93099349	     11.69323895	     11.69323895	     13.98517379	      1.63648560	     -5.01967890	     31.09499857	     -6.61137634	      0.93774562	     20.45144290	     20.45144290	      4.97716137	     -5.02358738	      7.30689420	     -9.77529794	      4.63752725	      3.12685622	     38.91869700	    -18.61558113	    -10.79346631	     76.19841869	     45.19105836	      0.00000000	      0.00000000	     -4.77988604	     -6.33028408	      0.93893001	     27.52810095	     45.22041875	      0.00000000	      0.00000000
